<?xml version="1.0" encoding="UTF-8"?>
<svg width="222px" height="256px" viewBox="0 0 444 512" version="1.1" xmlns="http://www.w3.org/2000/svg" xmlns:xlink="http://www.w3.org/1999/xlink">
    <title>npm-on-ipfs</title>
    <desc>Original idea by @olizilla.</desc>
    <g id="Page-1" stroke="none" stroke-width="1" fill="none" fill-rule="evenodd">
        <g id="js-ipfs-logo-on">
            <polygon id="Path" fill="#4A9EA1" points="0.298 384 221.998 512 443.698 384 443.698 128 221.998 0.01 0.298 128.01"></polygon>
            <path d="M199.113,30.84 L38.373,123.646 C38.6943025,126.50032 38.6943025,129.38168 38.373,132.236 L199.123,225.041 C212.677,215.041 231.166,215.041 244.72,225.041 L405.47,132.234 C405.148069,129.380403 405.147733,126.499672 405.469,123.646 L244.729,30.84 C231.175,40.841 212.685,40.841 199.13,30.84 L199.113,30.84 Z M420.903,157.87 L259.983,251.71 C261.867,268.449 252.622,284.461 237.184,291.199 L237.364,475.779 C239.996502,476.927524 242.491786,478.367872 244.803,480.073 L405.553,387.268 C403.669,370.529 412.913,354.516 428.352,347.778 L428.352,162.168 C425.719193,161.01946 423.223579,159.579115 420.912,157.874 L420.903,157.87 Z M23.093,158.901 C20.7821913,160.606753 18.2872429,162.047771 15.655,163.197 L15.655,348.807 C31.093,355.545 40.338,371.557 38.454,388.296 L199.194,481.102 C201.505545,479.396558 204.001158,477.955878 206.634,476.807 L206.634,291.197 C191.195,284.459 181.95,268.447 183.834,251.707 L23.094,158.897 L23.093,158.902 L23.093,158.901 Z" id="Shape" fill="#63D3D7" fill-rule="nonzero"></path>
            <path d="M23.093,158.901 C20.7821913,160.606753 18.2872429,162.047771 15.655,163.197 L15.655,348.807 C31.093,355.545 40.338,371.557 38.454,388.296 L199.194,481.102 C201.505545,479.396558 204.001158,477.955878 206.634,476.807 L206.634,291.197 C191.195,284.459 181.95,268.447 183.834,251.707 L23.094,158.897 L23.093,158.902 L23.093,158.901 Z" id="Path" fill="#C12127"></path>
            <polygon id="Path" fill="#FFFFFF" points="43 211 176 292.199424 176 432 149.4 415.760115 149.4 303.919655 109.5 279.559827 109.5 391.400288 43 350.800576"></polygon>
            <g id="Group" fill="#000000">
                <polygon id="Path" fill-opacity="0.251" points="222 512 443.7 384 443.7 128 222 256"></polygon>
                <polygon id="Path" fill-opacity="0.039" points="222 512 222 256 0.3 128 0.3 384"></polygon>
                <polygon id="Path" fill-opacity="0.13" points="0.298 128 221.998 256 443.698 128 221.998 0"></polygon>
            </g>
        </g>
    </g>
</svg>
